<?xml version="1.0" encoding="UTF-8" standalone="no"?>
<svg
   xmlns:dc="http://purl.org/dc/elements/1.1/"
   xmlns:cc="http://creativecommons.org/ns#"
   xmlns:rdf="http://www.w3.org/1999/02/22-rdf-syntax-ns#"
   xmlns:svg="http://www.w3.org/2000/svg"
   xmlns="http://www.w3.org/2000/svg"
   version="1.1"
   viewBox="0 0 18 18"
   id="Layer_1">
  <metadata
     id="metadata11">
    <rdf:RDF>
      <cc:Work
         rdf:about="">
        <dc:format>image/svg+xml</dc:format>
        <dc:type
           rdf:resource="http://purl.org/dc/dcmitype/StillImage" />
        <dc:title></dc:title>
      </cc:Work>
    </rdf:RDF>
  </metadata>
  <defs
     id="defs9" />
  <style
     id="style2">
        .st0{fill:#fff}
    </style>
  <path
     style="fill:#ffffff;fill-opacity:1;opacity:1"
     id="path4"
     d="M9 0C4 0 0 4 0 9s4 9 9 9 9-4 9-9-4-9-9-9zm4.4 10.4c-.5.6-1.1 1-1.9 1.3-.8.3-1.6.5-2.6.5-.4 0-.8 0-1.3-.1-.6.4-1.3.7-2 .9-.2 0-.4.1-.6.1-.1 0-.1 0-.1-.1 0 0-.1-.1-.1-.2l.2-.2c.1-.1.1-.2.2-.2 0-.1.1-.1.2-.2s.1-.2.2-.3.1-.2.1-.3c-.6-.3-1.1-.8-1.4-1.3s-.5-1-.5-1.6c0-.7.2-1.3.7-1.9s1.1-1 1.9-1.3c.8-.5 1.7-.7 2.6-.7s1.8.2 2.6.5 1.4.8 1.9 1.3c.5.6.7 1.2.7 1.9s-.3 1.3-.8 1.9z"
     class="st0" />
</svg>
