<?xml version="1.0" encoding="UTF-8" standalone="no"?>
<svg
   xmlns:dc="http://purl.org/dc/elements/1.1/"
   xmlns:cc="http://creativecommons.org/ns#"
   xmlns:rdf="http://www.w3.org/1999/02/22-rdf-syntax-ns#"
   xmlns:svg="http://www.w3.org/2000/svg"
   xmlns="http://www.w3.org/2000/svg"
   version="1.1"
   viewBox="0 0 18 18"
   id="Layer_1">
  <metadata
     id="metadata11">
    <rdf:RDF>
      <cc:Work
         rdf:about="">
        <dc:format>image/svg+xml</dc:format>
        <dc:type
           rdf:resource="http://purl.org/dc/dcmitype/StillImage" />
        <dc:title></dc:title>
      </cc:Work>
    </rdf:RDF>
  </metadata>
  <defs
     id="defs9" />
  <style
     id="style2">
        .st0{fill:#fff}
    </style>
  <path
     style="fill:#ffffff;fill-opacity:1;opacity:1"
     id="path4"
     d="M9 0C4 0 0 4 0 9s4 9 9 9 9-4 9-9-4-9-9-9zM6.3 5.6c.7 0 1.3.6 1.3 1.3S7 8.2 6.3 8.2 5 7.7 5 7c0-.8.6-1.4 1.3-1.4zm6.5 5.9c-.5 1.7-2.1 2.8-3.8 2.8-1.8 0-3.3-1.1-3.8-2.8-.1-.4.1-.7.4-.8s.7.1.8.4C6.8 12.2 7.8 13 9 13s2.2-.8 2.5-1.9c.1-.4.5-.6.8-.4.4.1.6.4.5.8zm-1.1-3.2c-.7 0-1.3-.6-1.3-1.3s.6-1.3 1.3-1.3S13 6.2 13 7c0 .7-.6 1.3-1.3 1.3z"
     class="st0" />
</svg>
