<svg xmlns="http://www.w3.org/2000/svg" width="335" height="80" viewBox="0 0 335 80"><path d="m18.564 29.987 6.358 31.28H27.2l6.357-31.28h18.564v49.266H41.99V38.624h-2.278l-8.841 40.629h-9.587l-8.841-40.629h-2.278v40.629H0V29.987h18.564Zm58.173 10.438c11.695 0 18.495 7.005 18.495 19.788C95.232 72.997 88.467 80 76.737 80c-11.731 0-18.496-7.003-18.496-19.787.035-12.817 6.8-19.788 18.496-19.788m0 31.687c5.27 0 7.786-2.855 7.786-9.145v-5.576c0-6.29-2.482-9.145-7.786-9.145-5.303 0-7.787 2.855-7.787 9.145v5.576c.034 6.29 2.516 9.145 7.787 9.145m22.644-.204 19.345-23.424H99.652V41.14h31.144v7.344l-19.345 23.424h19.617v7.345H99.381v-7.345Zm36.99-30.768h14.281v38.113h-10.133V48.484h-4.148V41.14Zm4.148-11.153h10.133v7.344h-10.133v-7.344Zm16.831 0h14.279v49.266h-10.131V37.331h-4.148v-7.344Zm21.011 0h14.279v49.266h-10.131V37.331h-4.148v-7.344ZM214.4 40.425c5.644 0 9.35 2.789 10.438 7.651h2.278V41.14h12.07v7.344h-4.148v23.424h4.148v7.345h-5.78c-4.079 0-6.29-2.21-6.29-6.291v-.646h-2.278c-1.088 4.863-4.794 7.651-10.438 7.651-8.907 0-15.197-7.582-15.197-19.789 0-12.205 6.29-19.753 15.197-19.753m2.993 31.687c5.133 0 7.479-2.855 7.479-9.145v-5.576c0-6.29-2.346-9.145-7.479-9.145-5.135 0-7.48 2.855-7.48 9.145v5.576c0 6.29 2.345 9.145 7.48 9.145m59.499 7.141h-10.133V0h10.133v79.253Zm8.261-38.828h40.12v-2.278l-26.146-9.485v-8.024l26.146-9.485V8.84h-30.974V0h40.12v16.15l-21.284 7.343v2.278l21.284 7.344v16.15h-49.266v-8.84Zm0-31.585h9.146v9.146h-9.146V8.84Z" style="fill:#fff"/></svg>